PathFileType	4	(X/Y/Z)	/Users/itak/Documents/Research/Walk-IL/dataset/trc/00206_00008.trc
DataRate	CameraRate	NumFrames	NumMarkers	Units	OrigDataRate	OrigDataStartFrame	OrigNumFrames
100.000000	100.000000	4	53	mm	100.000000	436	582
Frame#	Time	RPSI			LPSI			L3			STRN			T10			C7			CLAV			RBAK			LBAK			LSHO			LUPA			LAEL			LAOL			LWTS			LWPS			LFRA			LIFD			LHPS			LHTS			RSHO			RUPA			RAEL			RAOL			RWTS			RWPS			RFRA			RIFD			RHTS			RHPS			RBHD			LFHD			RFHD			LBHD			LHIP			RHIP			RASI			LASI			LKNE			LTHI			LANK			LTIP			LTOE			LMT1			LMT5			LHEE			RKNE			RTHI			RANK			RTIP			RTOE			RMT1			RMT5			RHEE			
		X1	Y1	Z1	X2	Y2	Z2	X3	Y3	Z3	X4	Y4	Z4	X5	Y5	Z5	X6	Y6	Z6	X7	Y7	Z7	X8	Y8	Z8	X9	Y9	Z9	X10	Y10	Z10	X11	Y11	Z11	X12	Y12	Z12	X13	Y13	Z13	X14	Y14	Z14	X15	Y15	Z15	X16	Y16	Z16	X17	Y17	Z17	X18	Y18	Z18	X19	Y19	Z19	X20	Y20	Z20	X21	Y21	Z21	X22	Y22	Z22	X23	Y23	Z23	X24	Y24	Z24	X25	Y25	Z25	X26	Y26	Z26	X27	Y27	Z27	X28	Y28	Z28	X29	Y29	Z29	X30	Y30	Z30	X31	Y31	Z31	X32	Y32	Z32	X33	Y33	Z33	X34	Y34	Z34	X35	Y35	Z35	X36	Y36	Z36	X37	Y37	Z37	X38	Y38	Z38	X39	Y39	Z39	X40	Y40	Z40	X41	Y41	Z41	X42	Y42	Z42	X43	Y43	Z43	X44	Y44	Z44	X45	Y45	Z45	X46	Y46	Z46	X47	Y47	Z47	X48	Y48	Z48	X49	Y49	Z49	X50	Y50	Z50	X51	Y51	Z51	X52	Y52	Z52	X53	Y53	Z53	

437	4.36	354.8803405761719	1047.123168945312	590.8033447265625	477.3645935058594	1052.431030273438	606.6605834960938	410.2738952636719	1085.602661132812	598.3500366210938	388.1463928222656	1306.57861328125	849.7894897460938	412.2403869628906	1237.249755859375	553.4508056640625	419.9252319335938	1508.78857421875	606.4568481445312	401.5174865722656	1417.815551757812	814.7404174804688	313.8694152832031	1331.955932617188	539.93798828125	520.3760986328125	1484.061645507812	608.3120727539062	593.4962768554688	1475.483642578125	690.2451782226562	667.2684326171875	1342.845947265625	663.1988525390625	685.1041870117188	1127.420288085938	676.5460205078125	607.0257568359375	1108.73974609375	636.4006958007812	676.9962158203125	892.797607421875	785.8189697265625	706.3685913085938	875.4500122070312	698.9658813476562	703.5029296875	1017.699401855469	686.8626708984375	659.1339111328125	707.7559814453125	793.1144409179688	708.0493774414062	805.6435546875	717.9331665039062	700.0873413085938	813.3294067382812	790.4796752929688	234.8634033203125	1495.380004882812	657.57861328125	166.8591918945312	1429.539184570312	634.2880249023438	107.8063430786133	1142.89697265625	620.05322265625	205.3226623535156	1131.732299804688	630.1678466796875	95.02777099609375	928.8658447265625	779.0392456054688	60.97077178955078	906.1602783203125	699.3211059570312	83.04135894775391	1073.381713867188	647.3132934570312	107.8523254394531	740.7451171875	812.7909545898438	79.0782470703125	838.2194213867188	811.0562744140625	54.95419311523438	826.4142456054688	734.5315551757812	345.1785888671875	1684.441772460938	671.0122680664062	484.8759765625	1715.398803710938	835.0764770507812	357.1344604492188	1720.506713867188	842.280029296875	482.1159362792969	1687.346313476562	656.9619750976562	588.9078369140625	1001.927917480469	725.6111450195312	207.8017425537109	1003.700927734375	733.9747314453125	256.4048767089844	1035.588256835938	815.7891845703125	514.3142700195312	1038.754150390625	841.3017578125	542.1478271484375	512.6393432617188	883.4850463867188	574.566162109375	651.414306640625	842.9421997070312	538.98681640625	37.48047256469727	835.31298828125	552.870361328125	279.5955810546875	869.829345703125	508.6938781738281	55.80705642700195	1049.052856445312	461.4498596191406	51.52889251708984	1001.922668457031	572.7744750976562	34.10565948486328	943.2362670898438	473.1542663574219	41.83479309082031	782.7836303710938	223.3151397705078	494.0690612792969	764.8541870117188	205.8246459960938	767.8023071289062	786.783203125	234.2712554931641	177.8214263916016	382.3435974121094	233.9712371826172	380.6468200683594	708.3167724609375	227.2944793701172	53.50355529785156	559.3318481445312	285.0572204589844	76.61467742919922	509.8262329101562	177.4751892089844	113.6419830322266	459.9236755371094	311.2399291992188	197.4001770019531	353.8883666992188	
438	4.37	358.0083923339844	1048.5576171875	595.5025634765625	480.3997497558594	1053.83984375	612.4010620117188	413.58935546875	1087.125610351562	603.6705322265625	389.6424865722656	1307.642578125	855.84423828125	416.3579711914062	1239.035278320312	559.4517211914062	423.8581848144531	1510.541259765625	613.262939453125	403.1772766113281	1418.944091796875	821.0501098632812	318.1762390136719	1333.849487304688	545.3470458984375	524.1630249023438	1485.643188476562	615.8636474609375	596.3473510742188	1476.963500976562	698.8268432617188	670.8021240234375	1344.564453125	673.1309204101562	689.4812622070312	1129.231323242188	687.896484375	612.5238647460938	1110.111450195312	645.9612426757812	679.2833862304688	895.7925415039062	799.463623046875	711.051025390625	877.5411376953125	713.6405029296875	707.9954833984375	1019.623291015625	699.7916870117188	662.548095703125	710.9120483398438	808.8482666015625	712.6236572265625	808.003662109375	733.6060180664062	702.831298828125	816.6499633789062	805.7782592773438	238.1715393066406	1496.998046875	662.5125122070312	170.3565063476562	1431.193603515625	638.5160522460938	111.6829223632812	1144.18408203125	624.2273559570312	209.1385040283203	1133.4521484375	635.0587768554688	98.51301574707031	931.7430419921875	785.4258422851562	65.29732513427734	907.8734130859375	705.6997680664062	86.94402313232422	1074.64111328125	651.897705078125	111.7556228637695	744.2645263671875	821.86865234375	82.56959533691406	841.5347900390625	818.462646484375	59.31740951538086	828.537841796875	741.8981323242188	348.1798400878906	1685.85791015625	677.68310546875	486.9168395996094	1716.426391601562	842.6347045898438	359.1333618164062	1721.64697265625	849.0631103515625	485.2000427246094	1688.684448242188	664.4484252929688	590.7872924804688	1002.705261230469	731.4677734375	209.2357025146484	1005.694030761719	738.10009765625	258.0810546875	1037.0927734375	819.7808227539062	515.904541015625	1039.457153320312	847.1358032226562	542.7843017578125	512.4030151367188	885.4404907226562	575.3889770507812	651.4927978515625	846.238525390625	538.964111328125	37.5455322265625	835.412841796875	553.1876220703125	279.4697265625	870.8912353515625	508.5592651367188	55.16032791137695	1049.5380859375	461.3011474609375	51.26334381103516	1002.160034179688	572.8088989257812	34.06969833374023	943.2937622070312	473.1856079101562	41.9307746887207	782.8539428710938	225.4257049560547	495.6571350097656	775.6879272460938	207.2737579345703	769.6978149414062	792.859375	239.0008392333984	175.1783905029297	397.1112365722656	236.5055389404297	381.8112182617188	720.4903564453125	229.6615142822266	54.87307739257812	576.6983032226562	288.442626953125	76.49060821533203	526.5381469726562	181.0600128173828	113.3599548339844	475.6863708496094	316.2576293945312	193.7163391113281	368.6791076660156	
439	4.38	361.0067749023438	1049.995971679688	600.0863647460938	483.2894592285156	1055.2451171875	617.9365234375	416.7655944824219	1088.634399414062	608.8471069335938	391.0595092773438	1308.75830078125	861.7318725585938	420.3554382324219	1240.76171875	565.350830078125	427.6797790527344	1512.333251953125	619.8014526367188	404.7868347167969	1420.091552734375	827.2210693359375	322.3568420410156	1335.66796875	550.6491088867188	527.7838134765625	1487.187622070312	623.1221313476562	599.053955078125	1478.438598632812	707.1751708984375	674.189697265625	1346.293334960938	682.850830078125	693.7634887695312	1131.08251953125	699.132568359375	617.9196166992188	1111.450927734375	655.5278930664062	681.565185546875	898.9266967773438	813.1014404296875	715.5950927734375	879.7332153320312	728.345703125	712.3657836914062	1021.619934082031	712.6609497070312	665.8297729492188	714.253662109375	824.7344970703125	717.0550537109375	810.4879760742188	749.3494873046875	705.5257568359375	820.1306762695312	821.096923828125	241.3755645751953	1498.577392578125	667.30029296875	173.7511749267578	1432.81201171875	642.6239624023438	115.4842147827148	1145.413330078125	628.2753295898438	212.8676910400391	1135.155517578125	639.8032836914062	102.0750961303711	934.6354370117188	791.7822875976562	69.65513610839844	909.5531005859375	712.07958984375	90.80169677734375	1075.83544921875	656.3912963867188	115.819938659668	747.8901977539062	831.0178833007812	86.169921875	844.908447265625	825.880615234375	63.7645263671875	830.6549682617188	749.312255859375	351.0861511230469	1687.293823242188	684.1988525390625	488.83447265625	1717.393798828125	850.0618286132812	361.009521484375	1722.715209960938	855.7037353515625	488.1818237304688	1690.044067382812	671.7984008789062	592.6203002929688	1003.4833984375	737.1845092773438	210.8450317382812	1007.505249023438	741.8641357421875	259.6549072265625	1038.543579101562	823.6488037109375	517.384765625	1040.105102539062	852.7584838867188	543.4166870117188	512.1605834960938	887.1139526367188	576.2013549804688	651.53759765625	849.2448120117188	538.9414672851562	37.60610198974609	835.4954833984375	553.5166015625	279.3475952148438	871.7339477539062	508.4078063964844	54.47155380249023	1050.031860351562	461.1691589355469	51.00785446166992	1002.396484375	572.8565063476562	34.03152465820312	943.3445434570312	473.1809692382812	42.01667785644531	782.9314575195312	227.3808135986328	497.2830200195312	786.251220703125	208.6054534912109	771.6082153320312	798.7607421875	243.5602111816406	171.6174621582031	412.3220825195312	239.0560455322266	382.8553466796875	732.6116333007812	232.8008422851562	55.84335327148438	594.6149291992188	292.0570068359375	75.5946044921875	544.157470703125	184.9553680419922	112.0400695800781	492.0423889160156	320.9495544433594	189.4080505371094	383.8180847167969	
440	4.39	363.8652954101562	1051.417602539062	604.562255859375	486.0336608886719	1056.637939453125	623.2744750976562	419.7962951660156	1090.117065429688	613.8867797851562	392.3785400390625	1309.91259765625	867.410888671875	424.234375	1242.4130859375	571.1563110351562	431.3630676269531	1514.10595703125	626.0791625976562	406.3550109863281	1421.250732421875	833.279052734375	326.4143371582031	1337.391723632812	555.8456420898438	531.242431640625	1488.680297851562	630.1173706054688	601.62060546875	1479.894775390625	715.290283203125	677.4299926757812	1348.01025390625	692.3411865234375	697.940185546875	1132.9482421875	710.2254028320312	623.1891479492188	1112.740966796875	665.0887451171875	683.8578491210938	902.18310546875	826.7075805664062	719.9730224609375	882.000732421875	743.0396728515625	716.6045532226562	1023.661071777344	725.4303588867188	668.9264526367188	717.7841186523438	840.7323608398438	721.3089599609375	813.07275390625	765.1133422851562	708.1643676757812	823.7501220703125	836.3994140625	244.4702606201172	1500.09423828125	671.9487915039062	177.0424041748047	1434.364013671875	646.6234741210938	119.1855239868164	1146.564208984375	632.2168579101562	216.4915924072266	1136.803466796875	644.3978271484375	105.7202224731445	937.5162353515625	798.1044311523438	74.00917816162109	911.188720703125	718.4703369140625	94.59140014648438	1076.949462890625	660.8123168945312	120.04052734375	751.5891723632812	840.2010498046875	89.88958740234375	848.3126831054688	833.302734375	68.26706695556641	832.7568969726562	756.779541015625	353.9020080566406	1688.740844726562	690.5491943359375	490.6319885253906	1718.296020507812	857.3427734375	362.7690124511719	1723.708251953125	862.1848754882812	491.0638122558594	1691.416870117188	678.997314453125	594.3868408203125	1004.25146484375	742.7409057617188	212.6273956298828	1009.099853515625	745.298583984375	261.135986328125	1039.915161132812	827.4176635742188	518.7566528320312	1040.685424804688	858.1787109375	544.0482788085938	511.9132385253906	888.5269775390625	577.0130004882812	651.5472412109375	851.9766235351562	538.911865234375	37.66510772705078	835.5628051757812	553.8525390625	279.216064453125	872.3692626953125	508.2463073730469	53.77068328857422	1050.519897460938	461.0563659667969	50.76708984375	1002.627624511719	572.9127197265625	33.9927978515625	943.388671875	473.13916015625	42.10082244873047	783.0195922851562	229.1618041992188	498.940185546875	796.5162963867188	209.815673828125	773.5169677734375	804.48828125	247.9627990722656	167.2615661621094	427.9086303710938	241.5513153076172	383.8063049316406	744.6082153320312	236.4302673339844	56.46683120727539	613.01416015625	295.6512145996094	74.08249664306641	562.745849609375	189.0358123779297	109.8560028076172	508.8894653320312	325.3899841308594	184.5038909912109	399.2777099609375	
